{
	"asset":{
		"generator":"Khronos glTF Blender I/O v4.0.44",
		"version":"2.0"
	},
	"scene":0,
	"scenes":[
		{
			"name":"Scene",
			"nodes":[
				0,
				1,
				2,
				3,
				4,
				5
			]
		}
	],
	"nodes":[
		{
			"mesh":0,
			"name":"Cube",
			"scale":[
				0.64000004529953,
				1,
				1.3999998569488525
			],
			"translation":[
				-0.13192766904830933,
				-0.054845429956912994,
				0
			]
		},
		{
			"mesh":1,
			"name":"Cube.010",
			"scale":[
				1,
				1.2200000286102295,
				1.2599999904632568
			],
			"translation":[
				-0.6558681726455688,
				0.1897711455821991,
				0.45040544867515564
			]
		},
		{
			"mesh":2,
			"name":"Cube.002",
			"rotation":[
				0,
				0.5810268521308899,
				0,
				0.8138843774795532
			],
			"scale":[
				1,
				0.7399999499320984,
				0.7300000190734863
			],
			"translation":[
				0.05909305065870285,
				0.22863785922527313,
				0.9625660181045532
			]
		},
		{
			"mesh":3,
			"name":"Cube.001",
			"scale":[
				1,
				1.3100000619888306,
				1.5
			],
			"translation":[
				-0.6561706066131592,
				0.8137666583061218,
				-0.8498950004577637
			]
		},
		{
			"mesh":4,
			"name":"Cube.011",
			"scale":[
				1,
				1.3100000619888306,
				1.5
			],
			"translation":[
				-0.6561706066131592,
				0.8137666583061218,
				-0.8498950004577637
			]
		},
		{
			"mesh":5,
			"name":"Cube.004",
			"scale":[
				6.309999942779541,
				0.3399999737739563,
				2.7700002193450928
			],
			"translation":[
				0.2851642072200775,
				0.6332471966743469,
				-0.10466817021369934
			]
		}
	],
	"materials":[
		{
			"doubleSided":true,
			"name":"Material.006",
			"pbrMetallicRoughness":{
				"baseColorFactor":[
					0.800000011920929,
					0.800000011920929,
					0.800000011920929,
					1
				],
				"metallicFactor":0,
				"roughnessFactor":0.5
			}
		},
		{
			"doubleSided":true,
			"name":"Material.007",
			"pbrMetallicRoughness":{
				"baseColorFactor":[
					0,
					0,
					0,
					1
				],
				"metallicFactor":0,
				"roughnessFactor":0.5
			}
		},
		{
			"doubleSided":true,
			"name":"Material.008",
			"pbrMetallicRoughness":{
				"baseColorFactor":[
					0,
					0,
					0,
					1
				],
				"metallicFactor":0,
				"roughnessFactor":0.5
			}
		},
		{
			"doubleSided":true,
			"name":"Material.009",
			"pbrMetallicRoughness":{
				"baseColorTexture":{
					"index":0
				},
				"metallicFactor":0,
				"roughnessFactor":0.5
			}
		},
		{
			"doubleSided":true,
			"name":"Material.019",
			"pbrMetallicRoughness":{
				"baseColorFactor":[
					0,
					0,
					0,
					1
				],
				"metallicFactor":0,
				"roughnessFactor":0.5
			}
		},
		{
			"doubleSided":true,
			"name":"Material.011",
			"pbrMetallicRoughness":{
				"baseColorFactor":[
					0,
					0,
					0,
					1
				],
				"metallicFactor":0,
				"roughnessFactor":0.5
			}
		},
		{
			"doubleSided":true,
			"name":"Material.017",
			"pbrMetallicRoughness":{
				"baseColorTexture":{
					"index":1
				},
				"metallicFactor":0,
				"roughnessFactor":0.5
			}
		},
		{
			"doubleSided":true,
			"name":"Material.005",
			"pbrMetallicRoughness":{
				"metallicFactor":0,
				"roughnessFactor":0.5
			}
		},
		{
			"doubleSided":true,
			"name":"Material.004",
			"pbrMetallicRoughness":{
				"baseColorFactor":[
					0,
					0,
					0,
					1
				],
				"metallicFactor":0,
				"roughnessFactor":0.5
			}
		},
		{
			"doubleSided":true,
			"name":"Material.002",
			"pbrMetallicRoughness":{
				"baseColorFactor":[
					0,
					0,
					0,
					1
				],
				"metallicFactor":0,
				"roughnessFactor":0.5
			}
		},
		{
			"doubleSided":true,
			"name":"Material.003",
			"pbrMetallicRoughness":{
				"baseColorTexture":{
					"index":2
				},
				"metallicFactor":0,
				"roughnessFactor":0.5
			}
		},
		{
			"doubleSided":true,
			"name":"Material.021",
			"pbrMetallicRoughness":{
				"baseColorFactor":[
					0,
					0,
					0,
					1
				],
				"metallicFactor":0,
				"roughnessFactor":0.5
			}
		},
		{
			"doubleSided":true,
			"name":"Material",
			"pbrMetallicRoughness":{
				"baseColorTexture":{
					"index":3
				},
				"metallicFactor":0,
				"roughnessFactor":0.5
			}
		}
	],
	"meshes":[
		{
			"name":"Cube",
			"primitives":[
				{
					"attributes":{
						"POSITION":0,
						"NORMAL":1,
						"TEXCOORD_0":2
					},
					"indices":3,
					"material":0
				}
			]
		},
		{
			"name":"Cube.009",
			"primitives":[
				{
					"attributes":{
						"POSITION":4,
						"NORMAL":5,
						"TEXCOORD_0":6
					},
					"indices":3,
					"material":1
				},
				{
					"attributes":{
						"POSITION":7,
						"NORMAL":8,
						"TEXCOORD_0":9
					},
					"indices":3,
					"material":2
				},
				{
					"attributes":{
						"POSITION":10,
						"NORMAL":11,
						"TEXCOORD_0":12
					},
					"indices":3,
					"material":3
				}
			]
		},
		{
			"name":"Cube.017",
			"primitives":[
				{
					"attributes":{
						"POSITION":13,
						"NORMAL":14,
						"TEXCOORD_0":15
					},
					"indices":3,
					"material":4
				},
				{
					"attributes":{
						"POSITION":16,
						"NORMAL":17,
						"TEXCOORD_0":18
					},
					"indices":3,
					"material":5
				},
				{
					"attributes":{
						"POSITION":19,
						"NORMAL":20,
						"TEXCOORD_0":21
					},
					"indices":3,
					"material":6
				}
			]
		},
		{
			"name":"Cube.019",
			"primitives":[
				{
					"attributes":{
						"POSITION":22,
						"NORMAL":23,
						"TEXCOORD_0":24
					},
					"indices":25,
					"material":7
				},
				{
					"attributes":{
						"POSITION":26,
						"NORMAL":27,
						"TEXCOORD_0":28
					},
					"indices":25,
					"material":8
				},
				{
					"attributes":{
						"POSITION":29,
						"NORMAL":30,
						"TEXCOORD_0":31
					},
					"indices":25,
					"material":9
				},
				{
					"attributes":{
						"POSITION":32,
						"NORMAL":33,
						"TEXCOORD_0":34
					},
					"indices":25,
					"material":10
				}
			]
		},
		{
			"name":"Cube.020",
			"primitives":[
				{
					"attributes":{
						"POSITION":35,
						"NORMAL":36,
						"TEXCOORD_0":37
					},
					"indices":3,
					"material":11
				},
				{
					"attributes":{
						"POSITION":38,
						"NORMAL":39,
						"TEXCOORD_0":40
					},
					"indices":41,
					"material":10
				}
			]
		},
		{
			"name":"Cube.008",
			"primitives":[
				{
					"attributes":{
						"POSITION":42,
						"NORMAL":43,
						"TEXCOORD_0":44
					},
					"indices":45,
					"material":12
				}
			]
		}
	],
	"textures":[
		{
			"sampler":0,
			"source":0
		},
		{
			"sampler":0,
			"source":1
		},
		{
			"sampler":0,
			"source":2
		},
		{
			"sampler":0,
			"source":3
		}
	],
	"images":[
		{
			"mimeType":"image/png",
			"name":"Big-Banner (2)",
			"uri":"Big-Banner%202.png"
		},
		{
			"mimeType":"image/png",
			"name":"Mid Banner",
			"uri":"Mid%20Banner.png"
		},
		{
			"mimeType":"image/png",
			"name":"Flag Banner",
			"uri":"Flag%20Banner.png"
		},
		{
			"mimeType":"image/png",
			"name":"Small Banner",
			"uri":"Small%20Banner.png"
		}
	],
	"accessors":[
		{
			"bufferView":0,
			"componentType":5126,
			"count":24,
			"max":[
				1.6244035959243774,
				0.06024488806724548,
				0.8145735263824463
			],
			"min":[
				-1.6244035959243774,
				-0.06024488806724548,
				-0.8145735263824463
			],
			"type":"VEC3"
		},
		{
			"bufferView":1,
			"componentType":5126,
			"count":24,
			"type":"VEC3"
		},
		{
			"bufferView":2,
			"componentType":5126,
			"count":24,
			"type":"VEC2"
		},
		{
			"bufferView":3,
			"componentType":5123,
			"count":36,
			"type":"SCALAR"
		},
		{
			"bufferView":4,
			"componentType":5126,
			"count":24,
			"max":[
				0.05256545543670654,
				0.2860162854194641,
				0.041873812675476074
			],
			"min":[
				-0.05256545543670654,
				-0.2860162854194641,
				-0.041873812675476074
			],
			"type":"VEC3"
		},
		{
			"bufferView":5,
			"componentType":5126,
			"count":24,
			"type":"VEC3"
		},
		{
			"bufferView":6,
			"componentType":5126,
			"count":24,
			"type":"VEC2"
		},
		{
			"bufferView":7,
			"componentType":5126,
			"count":24,
			"max":[
				0.05256545543670654,
				0.2860162854194641,
				-0.7355412840843201
			],
			"min":[
				-0.05256545543670654,
				-0.2860162854194641,
				-0.8192889094352722
			],
			"type":"VEC3"
		},
		{
			"bufferView":8,
			"componentType":5126,
			"count":24,
			"type":"VEC3"
		},
		{
			"bufferView":9,
			"componentType":5126,
			"count":24,
			"type":"VEC2"
		},
		{
			"bufferView":10,
			"componentType":5126,
			"count":24,
			"max":[
				0.05256545543670654,
				0.8572550415992737,
				0.15934538841247559
			],
			"min":[
				-0.05256545543670654,
				0.28522247076034546,
				-0.9343985319137573
			],
			"type":"VEC3"
		},
		{
			"bufferView":11,
			"componentType":5126,
			"count":24,
			"type":"VEC3"
		},
		{
			"bufferView":12,
			"componentType":5126,
			"count":24,
			"type":"VEC2"
		},
		{
			"bufferView":13,
			"componentType":5126,
			"count":24,
			"max":[
				0.05256545543670654,
				0.2860162854194641,
				-0.7355412840843201
			],
			"min":[
				-0.05256545543670654,
				-0.2860162854194641,
				-0.8192889094352722
			],
			"type":"VEC3"
		},
		{
			"bufferView":14,
			"componentType":5126,
			"count":24,
			"type":"VEC3"
		},
		{
			"bufferView":15,
			"componentType":5126,
			"count":24,
			"type":"VEC2"
		},
		{
			"bufferView":16,
			"componentType":5126,
			"count":24,
			"max":[
				0.04887570068240166,
				0.2860162854194641,
				0.011515974998474121
			],
			"min":[
				-0.05625521019101143,
				-0.2860162854194641,
				-0.07223165035247803
			],
			"type":"VEC3"
		},
		{
			"bufferView":17,
			"componentType":5126,
			"count":24,
			"type":"VEC3"
		},
		{
			"bufferView":18,
			"componentType":5126,
			"count":24,
			"type":"VEC2"
		},
		{
			"bufferView":19,
			"componentType":5126,
			"count":24,
			"max":[
				0.04795856773853302,
				1.4371137619018555,
				0.14097003638744354
			],
			"min":[
				-0.05717236176133156,
				0.2855219542980194,
				-0.9527738690376282
			],
			"type":"VEC3"
		},
		{
			"bufferView":20,
			"componentType":5126,
			"count":24,
			"type":"VEC3"
		},
		{
			"bufferView":21,
			"componentType":5126,
			"count":24,
			"type":"VEC2"
		},
		{
			"bufferView":22,
			"componentType":5126,
			"count":14,
			"max":[
				0.013835892081260681,
				-0.4092579483985901,
				0.014955013990402222
			],
			"min":[
				-0.297107458114624,
				-0.7745419144630432,
				-0.1064969003200531
			],
			"type":"VEC3"
		},
		{
			"bufferView":23,
			"componentType":5126,
			"count":14,
			"type":"VEC3"
		},
		{
			"bufferView":24,
			"componentType":5126,
			"count":14,
			"type":"VEC2"
		},
		{
			"bufferView":25,
			"componentType":5123,
			"count":36,
			"type":"SCALAR"
		},
		{
			"bufferView":26,
			"componentType":5126,
			"count":14,
			"max":[
				0.011557132005691528,
				-0.4024917483329773,
				0.20320595800876617
			],
			"min":[
				-0.178679421544075,
				-0.7203377485275269,
				-0.01845119521021843
			],
			"type":"VEC3"
		},
		{
			"bufferView":27,
			"componentType":5126,
			"count":14,
			"type":"VEC3"
		},
		{
			"bufferView":28,
			"componentType":5126,
			"count":14,
			"type":"VEC2"
		},
		{
			"bufferView":29,
			"componentType":5126,
			"count":14,
			"max":[
				0.18225610256195068,
				-0.4058240056037903,
				0.016343194991350174
			],
			"min":[
				-0.03451753407716751,
				-0.7177399396896362,
				-0.1943269968032837
			],
			"type":"VEC3"
		},
		{
			"bufferView":30,
			"componentType":5126,
			"count":14,
			"type":"VEC3"
		},
		{
			"bufferView":31,
			"componentType":5126,
			"count":14,
			"type":"VEC2"
		},
		{
			"bufferView":32,
			"componentType":5126,
			"count":14,
			"max":[
				0.27607420086860657,
				-0.40409398078918457,
				0.10661178827285767
			],
			"min":[
				-0.03458873927593231,
				-0.6638525724411011,
				-0.014538247138261795
			],
			"type":"VEC3"
		},
		{
			"bufferView":33,
			"componentType":5126,
			"count":14,
			"type":"VEC3"
		},
		{
			"bufferView":34,
			"componentType":5126,
			"count":14,
			"type":"VEC2"
		},
		{
			"bufferView":35,
			"componentType":5126,
			"count":24,
			"max":[
				0.010899186134338379,
				0.5553890466690063,
				0.012340545654296875
			],
			"min":[
				-0.010899186134338379,
				-0.5553890466690063,
				-0.012340545654296875
			],
			"type":"VEC3"
		},
		{
			"bufferView":36,
			"componentType":5126,
			"count":24,
			"type":"VEC3"
		},
		{
			"bufferView":37,
			"componentType":5126,
			"count":24,
			"type":"VEC2"
		},
		{
			"bufferView":38,
			"componentType":5126,
			"count":16,
			"max":[
				0.22690612077713013,
				0.5652055144309998,
				-0.011953171342611313
			],
			"min":[
				-0.0073562562465667725,
				-0.3425469994544983,
				-0.2927018105983734
			],
			"type":"VEC3"
		},
		{
			"bufferView":39,
			"componentType":5126,
			"count":16,
			"type":"VEC3"
		},
		{
			"bufferView":40,
			"componentType":5126,
			"count":16,
			"type":"VEC2"
		},
		{
			"bufferView":41,
			"componentType":5123,
			"count":36,
			"type":"SCALAR"
		},
		{
			"bufferView":42,
			"componentType":5126,
			"count":48,
			"max":[
				0.01903054118156433,
				0.1118096187710762,
				0.15290331840515137
			],
			"min":[
				-0.01903054118156433,
				-1.853126883506775,
				-0.15290331840515137
			],
			"type":"VEC3"
		},
		{
			"bufferView":43,
			"componentType":5126,
			"count":48,
			"type":"VEC3"
		},
		{
			"bufferView":44,
			"componentType":5126,
			"count":48,
			"type":"VEC2"
		},
		{
			"bufferView":45,
			"componentType":5123,
			"count":72,
			"type":"SCALAR"
		}
	],
	"bufferViews":[
		{
			"buffer":0,
			"byteLength":288,
			"byteOffset":0,
			"target":34962
		},
		{
			"buffer":0,
			"byteLength":288,
			"byteOffset":288,
			"target":34962
		},
		{
			"buffer":0,
			"byteLength":192,
			"byteOffset":576,
			"target":34962
		},
		{
			"buffer":0,
			"byteLength":72,
			"byteOffset":768,
			"target":34963
		},
		{
			"buffer":0,
			"byteLength":288,
			"byteOffset":840,
			"target":34962
		},
		{
			"buffer":0,
			"byteLength":288,
			"byteOffset":1128,
			"target":34962
		},
		{
			"buffer":0,
			"byteLength":192,
			"byteOffset":1416,
			"target":34962
		},
		{
			"buffer":0,
			"byteLength":288,
			"byteOffset":1608,
			"target":34962
		},
		{
			"buffer":0,
			"byteLength":288,
			"byteOffset":1896,
			"target":34962
		},
		{
			"buffer":0,
			"byteLength":192,
			"byteOffset":2184,
			"target":34962
		},
		{
			"buffer":0,
			"byteLength":288,
			"byteOffset":2376,
			"target":34962
		},
		{
			"buffer":0,
			"byteLength":288,
			"byteOffset":2664,
			"target":34962
		},
		{
			"buffer":0,
			"byteLength":192,
			"byteOffset":2952,
			"target":34962
		},
		{
			"buffer":0,
			"byteLength":288,
			"byteOffset":3144,
			"target":34962
		},
		{
			"buffer":0,
			"byteLength":288,
			"byteOffset":3432,
			"target":34962
		},
		{
			"buffer":0,
			"byteLength":192,
			"byteOffset":3720,
			"target":34962
		},
		{
			"buffer":0,
			"byteLength":288,
			"byteOffset":3912,
			"target":34962
		},
		{
			"buffer":0,
			"byteLength":288,
			"byteOffset":4200,
			"target":34962
		},
		{
			"buffer":0,
			"byteLength":192,
			"byteOffset":4488,
			"target":34962
		},
		{
			"buffer":0,
			"byteLength":288,
			"byteOffset":4680,
			"target":34962
		},
		{
			"buffer":0,
			"byteLength":288,
			"byteOffset":4968,
			"target":34962
		},
		{
			"buffer":0,
			"byteLength":192,
			"byteOffset":5256,
			"target":34962
		},
		{
			"buffer":0,
			"byteLength":168,
			"byteOffset":5448,
			"target":34962
		},
		{
			"buffer":0,
			"byteLength":168,
			"byteOffset":5616,
			"target":34962
		},
		{
			"buffer":0,
			"byteLength":112,
			"byteOffset":5784,
			"target":34962
		},
		{
			"buffer":0,
			"byteLength":72,
			"byteOffset":5896,
			"target":34963
		},
		{
			"buffer":0,
			"byteLength":168,
			"byteOffset":5968,
			"target":34962
		},
		{
			"buffer":0,
			"byteLength":168,
			"byteOffset":6136,
			"target":34962
		},
		{
			"buffer":0,
			"byteLength":112,
			"byteOffset":6304,
			"target":34962
		},
		{
			"buffer":0,
			"byteLength":168,
			"byteOffset":6416,
			"target":34962
		},
		{
			"buffer":0,
			"byteLength":168,
			"byteOffset":6584,
			"target":34962
		},
		{
			"buffer":0,
			"byteLength":112,
			"byteOffset":6752,
			"target":34962
		},
		{
			"buffer":0,
			"byteLength":168,
			"byteOffset":6864,
			"target":34962
		},
		{
			"buffer":0,
			"byteLength":168,
			"byteOffset":7032,
			"target":34962
		},
		{
			"buffer":0,
			"byteLength":112,
			"byteOffset":7200,
			"target":34962
		},
		{
			"buffer":0,
			"byteLength":288,
			"byteOffset":7312,
			"target":34962
		},
		{
			"buffer":0,
			"byteLength":288,
			"byteOffset":7600,
			"target":34962
		},
		{
			"buffer":0,
			"byteLength":192,
			"byteOffset":7888,
			"target":34962
		},
		{
			"buffer":0,
			"byteLength":192,
			"byteOffset":8080,
			"target":34962
		},
		{
			"buffer":0,
			"byteLength":192,
			"byteOffset":8272,
			"target":34962
		},
		{
			"buffer":0,
			"byteLength":128,
			"byteOffset":8464,
			"target":34962
		},
		{
			"buffer":0,
			"byteLength":72,
			"byteOffset":8592,
			"target":34963
		},
		{
			"buffer":0,
			"byteLength":576,
			"byteOffset":8664,
			"target":34962
		},
		{
			"buffer":0,
			"byteLength":576,
			"byteOffset":9240,
			"target":34962
		},
		{
			"buffer":0,
			"byteLength":384,
			"byteOffset":9816,
			"target":34962
		},
		{
			"buffer":0,
			"byteLength":144,
			"byteOffset":10200,
			"target":34963
		}
	],
	"samplers":[
		{
			"magFilter":9729,
			"minFilter":9987
		}
	],
	"buffers":[
		{
			"byteLength":10344,
			"uri":"StandNexus.bin"
		}
	]
}
